<svg width="925" height="130" viewBox="0 0 925 130" fill="none" xmlns="http://www.w3.org/2000/svg">
<rect x="388" y="0.000976562" width="537" height="130" rx="8" fill="#F00000"/>
<path d="M330.534 118.285C327.737 120.031 324.753 121.574 321.582 122.915C313.913 126.16 305.653 127.782 296.804 127.782C287.601 127.782 278.988 126.13 270.965 122.827C262.941 119.523 256.01 115.01 250.169 109.287C244.329 103.565 239.698 96.8098 236.276 89.0229C232.854 81.2358 231.144 72.8582 231.144 63.8911C231.144 54.9234 232.825 46.5467 236.188 38.7593C239.55 30.9718 244.152 24.2171 249.992 18.4947C255.833 12.7718 262.765 8.25928 270.788 4.95515C278.81 1.65155 287.365 -4.93497e-05 296.45 -4.93497e-05C306.716 -4.93497e-05 316.39 2.06449 325.476 6.19422C334.561 10.324 342.053 15.9874 347.953 23.1849L330.077 39.6442C325.712 34.4525 320.668 30.4702 314.945 27.6978C309.222 24.9249 303.058 23.539 296.45 23.539C290.905 23.539 285.742 24.5707 280.965 26.6358C276.186 28.701 272.056 31.5322 268.576 35.1311C265.094 38.7297 262.381 42.9775 260.434 47.8739C258.488 52.7702 257.514 58.1098 257.514 63.8911C257.514 69.6723 258.517 75.0412 260.522 79.9968C262.529 84.9525 265.301 89.2291 268.841 92.8281C272.381 96.4265 276.598 99.2582 281.496 101.323C286.392 103.388 291.613 104.42 297.158 104.42C305.889 104.42 313.412 102.002 319.724 97.1639C323.997 93.889 327.174 89.9921 329.258 85.4734C329.152 89.0666 329.033 94.3765 329.038 100.242C329.042 104.559 328.936 108.752 329.272 112.489C329.468 114.663 329.898 116.589 330.534 118.285Z" fill="#091429"/>
<path d="M123.625 1.94684H181.852C194.241 1.94684 204.329 5.1031 212.117 11.4151C219.904 17.7276 223.797 25.8984 223.797 35.9276C223.797 41.3552 222.44 46.3104 219.726 50.7943C217.013 55.2776 213.297 58.9948 208.577 61.9443C214.476 64.776 219.196 68.6407 222.736 73.537C226.274 78.4334 228.045 83.8907 228.045 89.9079C228.045 100.645 224.064 109.317 216.098 115.925C208.134 122.532 197.662 125.835 184.684 125.835H123.625V1.94684ZM180.26 23.185H149.286V52.564H180.26C185.686 52.564 190.052 51.237 193.356 48.5818C196.66 45.9271 198.312 42.3579 198.312 37.8746C198.312 33.3912 196.66 29.8219 193.356 27.1667C190.052 24.512 185.686 23.185 180.26 23.185ZM182.737 104.597C188.637 104.597 193.356 103.152 196.896 100.262C200.436 97.3703 202.205 93.4474 202.205 88.4922C202.205 83.7724 200.436 79.938 196.896 76.988C193.356 74.038 188.637 72.5635 182.737 72.5635H149.286V104.597H182.737Z" fill="#091429"/>
<path d="M66.7229 103.889C73.2125 103.889 79.289 102.533 84.9526 99.8186C90.6157 97.105 95.6302 93.2112 99.9958 88.1378L116.809 104.774C110.91 111.736 103.388 117.281 94.2442 121.411C85.1 125.54 75.6901 127.605 66.0151 127.605C56.6942 127.605 47.9922 125.953 39.91 122.65C31.8276 119.346 24.837 114.862 18.9376 109.199C13.0381 103.535 8.40677 96.8096 5.04427 89.0227C1.68177 81.2356 0 72.858 0 63.891C0 54.9232 1.71094 46.517 5.13281 38.6706C8.55417 30.8243 13.2146 24.0695 19.1146 18.4061C25.0141 12.743 32.0048 8.25912 40.087 4.95499C48.1693 1.65139 56.8119 -0.000212121 66.0151 -0.000212121C75.9261 -0.000212121 85.5422 2.09405 94.8636 6.28258C104.184 10.4711 111.736 16.105 117.518 23.1847L100.173 40.3519C95.8073 34.9243 90.675 30.7654 84.775 27.8747C78.8756 24.9842 72.6223 23.5389 66.0151 23.5389C60.4698 23.5389 55.249 24.5706 50.3521 26.6357C45.4557 28.7009 41.237 31.5321 37.698 35.131C34.1578 38.7295 31.3854 42.9774 29.3792 47.8738C27.3734 52.7701 26.3704 58.1096 26.3704 63.891C26.3704 69.5544 27.4032 74.8342 29.4677 79.731C31.5328 84.6274 34.3646 88.8457 37.963 92.3857C41.5614 95.9247 45.8094 98.7268 50.7062 100.792C55.6026 102.857 60.9417 103.889 66.7229 103.889Z" fill="#091429"/>
<path fill-rule="evenodd" clip-rule="evenodd" d="M284.664 56.2249L356.93 56.026V128.445C344.042 130.123 333.346 126.285 332.105 112.49C331.768 108.752 331.876 104.559 331.872 100.242C331.861 89.5703 332.261 80.7369 332.261 80.7369H297.788C287.52 80.7369 284.664 66.2541 284.664 56.2249Z" fill="#F00000"/>
<path d="M866.986 96.1086C862.172 96.1086 857.589 95.3256 853.239 93.7595C848.889 92.1935 844.684 89.9024 840.624 86.8862L848.28 75.8368C852.514 78.7949 856.11 80.883 859.069 82.101C862.027 83.3191 865.014 83.9281 868.03 83.9281C870.176 83.9281 872.003 83.6671 873.511 83.1451C875.077 82.5651 876.266 81.811 877.078 80.883C877.948 79.8969 878.383 78.7659 878.383 77.4899C878.383 75.6918 877.774 74.3287 876.556 73.4007C875.396 72.4146 873.337 71.6606 870.379 71.1386L857.415 68.8765C852.601 68.0645 848.889 66.2084 846.279 63.3083C843.727 60.4081 842.451 56.812 842.451 52.5198C842.451 48.5756 843.408 45.1825 845.322 42.3404C847.236 39.4402 849.991 37.2072 853.587 35.6411C857.241 34.075 861.592 33.292 866.638 33.292C871.336 33.292 875.889 34.017 880.297 35.4671C884.706 36.8591 888.476 38.8022 891.608 41.2963L884.039 52.1718C881.08 49.9097 878.122 48.2276 875.164 47.1256C872.206 46.0235 869.103 45.4725 865.855 45.4725C863.883 45.4725 862.201 45.7335 860.809 46.2555C859.417 46.7196 858.344 47.3866 857.589 48.2566C856.893 49.1267 856.545 50.1127 856.545 51.2147C856.545 52.7808 857.067 53.9989 858.112 54.8689C859.214 55.6809 860.983 56.319 863.419 56.783L875.599 58.8711C881.283 59.7991 885.605 61.7422 888.563 64.7003C891.521 67.6584 893 71.4576 893 76.0978C893 80.042 891.927 83.5221 889.781 86.5382C887.693 89.5544 884.706 91.9034 880.819 93.5855C876.933 95.2676 872.322 96.1086 866.986 96.1086Z" fill="white"/>
<path d="M783.733 95.1516V34.249H813.314C817.491 34.249 821.203 35.0901 824.451 36.7721C827.699 38.3962 830.222 40.6873 832.02 43.6454C833.876 46.5455 834.804 49.8807 834.804 53.6508C834.804 57.537 833.76 60.9881 831.672 64.0043C829.642 66.9624 826.916 69.1955 823.494 70.7035L836.283 95.1516H819.579L808.529 72.7916H798.698V95.1516H783.733ZM798.698 61.0461H811.922C814.242 61.0461 816.099 60.3791 817.491 59.0451C818.941 57.711 819.666 55.9709 819.666 53.8248C819.666 51.6208 818.941 49.8807 817.491 48.6046C816.099 47.2706 814.242 46.6035 811.922 46.6035H798.698V61.0461Z" fill="white"/>
<path d="M725.617 95.1516V34.249H771.642V46.7775H740.582V58.349H762.507V70.5295H740.582V82.623H771.99V95.1516H725.617Z" fill="white"/>
<path d="M657.051 95.1516V34.249H671.146L698.204 71.1386L697.943 34.249H712.037V95.1516H698.813L670.885 57.044L671.146 95.1516H657.051Z" fill="white"/>
<path d="M613.892 95.1516V47.0386H594.316V34.249H648.432V47.0386H628.856V95.1516H613.892Z" fill="white"/>
<path d="M538.101 95.1516V34.249H567.682C571.858 34.249 575.57 35.0901 578.818 36.7721C582.066 38.3962 584.59 40.6873 586.388 43.6454C588.244 46.5455 589.172 49.8807 589.172 53.6508C589.172 57.537 588.128 60.9881 586.04 64.0043C584.01 66.9624 581.283 69.1955 577.861 70.7035L590.651 95.1516H573.946L562.897 72.7916H553.065V95.1516H538.101ZM553.065 61.0461H566.29C568.61 61.0461 570.466 60.3791 571.858 59.0451C573.308 57.711 574.033 55.9709 574.033 53.8248C574.033 51.6208 573.308 49.8807 571.858 48.6046C570.466 47.2706 568.61 46.6035 566.29 46.6035H553.065V61.0461Z" fill="white"/>
<path d="M466.916 95.1516L490.668 34.249H507.72L531.124 95.1516H514.942L509.895 80.622H487.622L482.489 95.1516H466.916ZM491.712 69.0505H505.893L498.846 48.8656L491.712 69.0505Z" fill="white"/>
<path d="M420 95.1516V34.249H449.755C454.105 34.249 457.876 35.1191 461.066 36.8591C464.314 38.5992 466.808 40.9773 468.548 43.9934C470.346 47.0096 471.245 50.4607 471.245 54.3469C471.245 58.001 470.346 61.3072 468.548 64.2653C466.808 67.2234 464.314 69.5725 461.066 71.3126C457.876 73.0526 454.105 73.9227 449.755 73.9227H434.965V95.1516H420ZM434.965 62.0032H447.058C450.132 62.0032 452.394 61.2782 453.844 59.8281C455.352 58.32 456.107 56.464 456.107 54.2599C456.107 52.0558 455.352 50.2287 453.844 48.7786C452.394 47.3286 450.161 46.6035 447.145 46.6035H434.965V62.0032Z" fill="white"/>
</svg>
